<svg xmlns="http://www.w3.org/2000/svg" viewBox="0 0 100 100" fill="none">
  <g>
    <!-- Ghost body -->
    <path d="M 50 20 Q 30 20 25 40 L 25 75 Q 25 82 30 85 Q 35 82 35 75 Q 35 82 40 85 Q 45 82 45 75 Q 45 82 50 85 Q 55 82 55 75 Q 55 82 60 85 Q 65 82 65 75 Q 65 82 70 85 Q 75 82 75 75 L 75 40 Q 70 20 50 20 Z"
          fill="#FFFFFF"
          stroke="#E0E0E0"
          stroke-width="1.5"/>

    <!-- Eyes -->
    <circle cx="40" cy="42" r="4" fill="#2D1B00"/>
    <circle cx="60" cy="42" r="4" fill="#2D1B00"/>

    <!-- Mouth -->
    <ellipse cx="50" cy="55" rx="6" ry="8" fill="#2D1B00"/>

    <!-- Glow effect -->
    <ellipse cx="50" cy="50" rx="30" ry="35" fill="url(#ghostGlow)" opacity="0.3"/>
  </g>

  <defs>
    <radialGradient id="ghostGlow">
      <stop offset="0%" style="stop-color:#FFFFFF;stop-opacity:0.6"/>
      <stop offset="100%" style="stop-color:#FFFFFF;stop-opacity:0"/>
    </radialGradient>
  </defs>
</svg>
