<svg xmlns="http://www.w3.org/2000/svg" width="400" height="400" viewBox="0 0 400 400">
  <defs>
    <pattern id="halloweenPattern" x="0" y="0" width="200" height="200" patternUnits="userSpaceOnUse">
      <!-- Spider web in corner -->
      <g opacity="0.15">
        <path d="M 0 0 L 50 50" stroke="#FF7518" stroke-width="0.5"/>
        <path d="M 0 0 L 0 50" stroke="#FF7518" stroke-width="0.5"/>
        <path d="M 0 0 L 50 0" stroke="#FF7518" stroke-width="0.5"/>
        <path d="M 10 0 Q 10 10 0 10" stroke="#FF7518" stroke-width="0.5" fill="none"/>
        <path d="M 20 0 Q 20 20 0 20" stroke="#FF7518" stroke-width="0.5" fill="none"/>
        <path d="M 30 0 Q 30 30 0 30" stroke="#FF7518" stroke-width="0.5" fill="none"/>
      </g>

      <!-- Small pumpkin -->
      <g transform="translate(150, 150)" opacity="0.1">
        <ellipse cx="0" cy="0" rx="15" ry="13" fill="#FF7518"/>
        <rect x="-2" y="-18" width="4" height="8" rx="2" fill="#7C5E10"/>
      </g>

      <!-- Small ghost -->
      <g transform="translate(100, 50)" opacity="0.08">
        <path d="M 0 0 Q -8 0 -10 10 L -10 25 Q -10 28 -8 30 Q -6 28 -6 25 Q -6 28 -3 30 Q 0 28 0 25 Q 0 28 3 30 Q 6 28 6 25 Q 6 28 8 30 Q 10 28 10 25 L 10 10 Q 8 0 0 0 Z"
              fill="#FFFFFF"/>
      </g>

      <!-- Small bat -->
      <g transform="translate(50, 120)" opacity="0.12">
        <path d="M -3 0 Q -6 -3 -10 -2 Q -8 1 -4 2 Z M 3 0 Q 6 -3 10 -2 Q 8 1 4 2 Z" fill="#2D1B00"/>
        <circle cx="0" cy="0" r="2" fill="#1A1A1A"/>
      </g>
    </pattern>
  </defs>

  <rect width="400" height="400" fill="url(#halloweenPattern)"/>
</svg>
